<svg width="240" height="240" viewBox="0 0 240 240" fill="none" xmlns="http://www.w3.org/2000/svg">
<circle cx="120" cy="120" r="120" fill="black"/>
<path d="M53.4785 67H189.479V169H53.4785V67Z" stroke="white" stroke-width="6"/>
<path d="M68.633 101.25C66.0663 101.25 63.7496 100.75 61.683 99.75C59.6163 98.75 57.833 97.4 56.333 95.7C54.833 93.9667 53.6663 92.0333 52.833 89.9C52.033 87.7333 51.633 85.5167 51.633 83.25C51.633 80.8833 52.0663 78.6333 52.933 76.5C53.7996 74.3333 54.9996 72.4167 56.533 70.75C58.0663 69.05 59.8663 67.7167 61.933 66.75C64.033 65.75 66.2996 65.25 68.733 65.25C71.2663 65.25 73.5663 65.7667 75.633 66.8C77.733 67.8333 79.5163 69.2167 80.983 70.95C82.483 72.6833 83.633 74.6167 84.433 76.75C85.2663 78.8833 85.683 81.0667 85.683 83.3C85.683 85.6667 85.2496 87.9333 84.383 90.1C83.5496 92.2333 82.3663 94.15 80.833 95.85C79.2996 97.5167 77.483 98.8333 75.383 99.8C73.3163 100.767 71.0663 101.25 68.633 101.25ZM57.333 83.25C57.333 84.9167 57.5996 86.5333 58.133 88.1C58.6663 89.6667 59.4163 91.0667 60.383 92.3C61.383 93.5 62.583 94.45 63.983 95.15C65.383 95.85 66.9496 96.2 68.683 96.2C70.483 96.2 72.083 95.8333 73.483 95.1C74.883 94.3667 76.0496 93.3833 76.983 92.15C77.9496 90.8833 78.683 89.4833 79.183 87.95C79.683 86.3833 79.933 84.8167 79.933 83.25C79.933 81.5833 79.6663 79.9833 79.133 78.45C78.633 76.8833 77.883 75.5 76.883 74.3C75.883 73.0667 74.683 72.1 73.283 71.4C71.9163 70.7 70.383 70.35 68.683 70.35C66.883 70.35 65.283 70.7167 63.883 71.45C62.483 72.1833 61.2996 73.1667 60.333 74.4C59.3663 75.6333 58.6163 77.0167 58.083 78.55C57.583 80.0833 57.333 81.65 57.333 83.25ZM136.631 65.5V101H130.981V85.35H113.081V101H107.481V65.5H113.081V80.35H130.981V65.5H136.631ZM175.389 101.25C172.823 101.25 170.506 100.75 168.439 99.75C166.373 98.75 164.589 97.4 163.089 95.7C161.589 93.9667 160.423 92.0333 159.589 89.9C158.789 87.7333 158.389 85.5167 158.389 83.25C158.389 80.8833 158.823 78.6333 159.689 76.5C160.556 74.3333 161.756 72.4167 163.289 70.75C164.823 69.05 166.623 67.7167 168.689 66.75C170.789 65.75 173.056 65.25 175.489 65.25C178.023 65.25 180.323 65.7667 182.389 66.8C184.489 67.8333 186.273 69.2167 187.739 70.95C189.239 72.6833 190.389 74.6167 191.189 76.75C192.023 78.8833 192.439 81.0667 192.439 83.3C192.439 85.6667 192.006 87.9333 191.139 90.1C190.306 92.2333 189.123 94.15 187.589 95.85C186.056 97.5167 184.239 98.8333 182.139 99.8C180.073 100.767 177.823 101.25 175.389 101.25ZM164.089 83.25C164.089 84.9167 164.356 86.5333 164.889 88.1C165.423 89.6667 166.173 91.0667 167.139 92.3C168.139 93.5 169.339 94.45 170.739 95.15C172.139 95.85 173.706 96.2 175.439 96.2C177.239 96.2 178.839 95.8333 180.239 95.1C181.639 94.3667 182.806 93.3833 183.739 92.15C184.706 90.8833 185.439 89.4833 185.939 87.95C186.439 86.3833 186.689 84.8167 186.689 83.25C186.689 81.5833 186.423 79.9833 185.889 78.45C185.389 76.8833 184.639 75.5 183.639 74.3C182.639 73.0667 181.439 72.1 180.039 71.4C178.673 70.7 177.139 70.35 175.439 70.35C173.639 70.35 172.039 70.7167 170.639 71.45C169.239 72.1833 168.056 73.1667 167.089 74.4C166.123 75.6333 165.373 77.0167 164.839 78.55C164.339 80.0833 164.089 81.65 164.089 83.25ZM80.1935 105.45H68.3935V136H62.7435V105.45H50.8936V100.5H80.1935V105.45ZM114.804 131.05V136H90.4541V100.5H114.354V105.45H96.0541V115.55H111.904V120.2H96.0541V131.05H114.804ZM126.131 136V100.5H151.082V105.4H131.731V115.35H142.131C146.064 115.35 149.015 116.283 150.982 118.15C152.948 119.983 153.932 122.417 153.932 125.45C153.932 127.483 153.498 129.3 152.632 130.9C151.798 132.467 150.532 133.717 148.832 134.65C147.165 135.55 145.048 136 142.481 136H126.131ZM131.731 131.1H141.731C143.264 131.1 144.498 130.817 145.431 130.25C146.398 129.683 147.082 128.967 147.482 128.1C147.915 127.2 148.132 126.267 148.132 125.3C148.132 124.333 147.948 123.433 147.582 122.6C147.215 121.767 146.548 121.1 145.581 120.6C144.648 120.067 143.331 119.8 141.631 119.8H131.731V131.1ZM189.037 131.05V136H164.687V100.5H188.587V105.45H170.287V115.55H186.137V120.2H170.287V131.05H189.037ZM80.0689 135.5V171H74.4189V155.35H56.5189V171H50.9189V135.5H56.5189V150.35H74.4189V135.5H80.0689ZM99.3271 135.5H104.627L118.427 171H112.527L108.777 161.35H95.0771L91.3771 171H85.4271L99.3271 135.5ZM107.677 157.2L101.977 141.65L96.0771 157.2H107.677ZM118.217 177.8V166.05H119.917C120.851 166.05 121.651 165.683 122.317 164.95C123.017 164.217 123.601 163.05 124.067 161.45C124.567 159.85 124.951 157.75 125.217 155.15C125.517 152.517 125.734 149.3 125.867 145.5L126.117 135.5H148.968V166.05H153.468V177.8H148.518V171H123.167V177.8H118.217ZM127.017 166.05H143.317V140.45H131.317L131.167 146.25C131.067 150.083 130.867 153.333 130.567 156C130.267 158.633 129.834 160.767 129.267 162.4C128.701 164.033 127.951 165.25 127.017 166.05ZM175.191 171.25C172.624 171.25 170.308 170.75 168.241 169.75C166.174 168.75 164.391 167.4 162.891 165.7C161.391 163.967 160.224 162.033 159.391 159.9C158.591 157.733 158.191 155.517 158.191 153.25C158.191 150.883 158.624 148.633 159.491 146.5C160.358 144.333 161.558 142.417 163.091 140.75C164.624 139.05 166.424 137.717 168.491 136.75C170.591 135.75 172.858 135.25 175.291 135.25C177.824 135.25 180.124 135.767 182.191 136.8C184.291 137.833 186.074 139.217 187.541 140.95C189.041 142.683 190.191 144.617 190.991 146.75C191.824 148.883 192.241 151.067 192.241 153.3C192.241 155.667 191.808 157.933 190.941 160.1C190.108 162.233 188.924 164.15 187.391 165.85C185.858 167.517 184.041 168.833 181.941 169.8C179.874 170.767 177.624 171.25 175.191 171.25ZM163.891 153.25C163.891 154.917 164.158 156.533 164.691 158.1C165.224 159.667 165.974 161.067 166.941 162.3C167.941 163.5 169.141 164.45 170.541 165.15C171.941 165.85 173.508 166.2 175.241 166.2C177.041 166.2 178.641 165.833 180.041 165.1C181.441 164.367 182.608 163.383 183.541 162.15C184.508 160.883 185.241 159.483 185.741 157.95C186.241 156.383 186.491 154.817 186.491 153.25C186.491 151.583 186.224 149.983 185.691 148.45C185.191 146.883 184.441 145.5 183.441 144.3C182.441 143.067 181.241 142.1 179.841 141.4C178.474 140.7 176.941 140.35 175.241 140.35C173.441 140.35 171.841 140.717 170.441 141.45C169.041 142.183 167.858 143.167 166.891 144.4C165.924 145.633 165.174 147.017 164.641 148.55C164.141 150.083 163.891 151.65 163.891 153.25Z" fill="white"/>
</svg>
